<svg xmlns="http://www.w3.org/2000/svg" viewBox="0 0 150 24" fill="none" width="150" height="24" color="#ffffff"><g opacity="0.991"><path fill-rule="evenodd" clip-rule="evenodd" d="M40.1221 0.0126502C44.5941 -0.166468 47.8405 1.55656 49.8613 5.18174C48.5232 5.98261 47.1498 6.73561 45.7408 7.44083C45.3015 6.67841 44.7326 6.00198 44.0344 5.41148C42.605 4.51328 41.0511 4.28355 39.3729 4.72227C37.9388 5.25511 37.4255 6.21235 37.833 7.59399C38.4052 8.40014 39.1959 8.94898 40.2053 9.24044C41.9309 9.7611 43.6512 10.2972 45.3663 10.8486C50.0202 12.4846 51.5601 15.4839 49.9861 19.8467C48.9424 21.7635 47.2914 23.0016 45.0333 23.5607C41.7796 24.3538 38.6441 24.073 35.6271 22.7184C33.7041 21.7025 32.3723 20.2348 31.6315 18.3151C33.0228 17.496 34.4379 16.7047 35.8768 15.9411C36.9132 18.32 38.8278 19.4942 41.6204 19.4638C42.6934 19.5141 43.6923 19.2971 44.6171 18.8128C45.9021 17.7115 45.9299 16.5884 44.7003 15.4434C44.2833 15.1748 43.8394 14.9451 43.3685 14.7541C41.6101 14.1724 39.8342 13.6363 38.0411 13.146C33.4199 11.5992 31.7967 8.65086 33.1715 4.30108C34.1754 2.26224 35.8541 0.947605 38.2075 0.357256C38.8504 0.207927 39.4885 0.0930583 40.1221 0.0126502Z" fill="currentColor"></path><path fill-rule="evenodd" clip-rule="evenodd" d="M65.9267 0.0126534C70.7456 -0.150384 74.6163 1.50878 77.5388 4.9903C80.3116 8.98145 80.6446 13.1422 78.5377 17.4727C76.2936 21.2954 72.8108 23.4524 68.091 23.9436C62.6113 24.2376 58.4354 22.2594 55.5633 18.0088C53.288 14.0011 53.288 9.99345 55.5633 5.98583C57.9273 2.41487 61.3818 0.423807 65.9267 0.0126534ZM65.7603 4.53082C69.8474 4.23339 72.7192 5.79047 74.3757 9.20215C75.5286 12.4751 74.7936 15.3214 72.1698 17.7407C69.4861 19.6067 66.5727 19.9641 63.4295 18.8128C60.4678 17.3741 58.942 15.1022 58.8513 11.9973C59.0828 7.8673 61.386 5.37848 65.7603 4.53082Z" fill="currentColor"></path><path fill-rule="evenodd" clip-rule="evenodd" d="M0.499445 0.472134C3.99556 0.472134 7.49168 0.472134 10.9878 0.472134C11.0017 1.36589 10.9878 2.25934 10.9462 3.1524C9.9452 4.31572 8.96021 5.48991 7.99112 6.67505C11.287 7.8899 12.3831 10.0596 11.2791 13.1843C10.5386 14.5662 9.35935 15.4724 7.7414 15.9028C5.60627 16.4081 3.60849 16.1273 1.74806 15.0605C0.945283 14.5002 0.362597 13.7855 0 12.9162C0.909157 12.3495 1.85252 11.8261 2.83019 11.3464C3.21809 12.3166 3.96726 12.8909 5.07769 13.0694C6.1982 13.2684 7.15547 13.0003 7.9495 12.2653C8.44853 11.4769 8.44853 10.6856 7.9495 9.89137C7.60397 9.52249 7.17386 9.28004 6.65927 9.16387C6.07841 9.09058 5.49573 9.02671 4.91121 8.97242C4.51182 8.40328 4.12333 7.82894 3.74584 7.24939C4.77961 5.96064 5.83393 4.68437 6.90899 3.42043C4.77261 3.38214 2.63615 3.36935 0.499445 3.38214C0.499445 2.41211 0.499445 1.44216 0.499445 0.472134Z" fill="currentColor"></path><path fill-rule="evenodd" clip-rule="evenodd" d="M15.0666 0.472134C18.6737 0.472134 22.2808 0.472134 25.8879 0.472134C25.9018 1.39147 25.8879 2.31042 25.8463 3.22898C23.9873 7.41534 22.1282 11.6016 20.2691 15.788C19.0964 15.8638 17.9172 15.8894 16.7314 15.8645C18.4766 11.7217 20.28 7.5992 22.1421 3.49701C19.7838 3.45872 17.4252 3.44593 15.0666 3.45872C15.0666 2.46319 15.0666 1.46766 15.0666 0.472134Z" fill="currentColor"></path><path fill-rule="evenodd" clip-rule="evenodd" d="M84.1565 0.472134C85.8213 0.472134 87.4861 0.472134 89.1509 0.472134C89.111 5.88659 89.1526 11.2981 89.2758 16.7069C89.7528 18.3192 90.9048 19.2254 92.7303 19.4255C94.0705 19.6064 95.3465 19.4277 96.5594 18.8894C97.4168 18.3989 97.9578 17.6969 98.1826 16.7835C98.3058 11.3492 98.3474 5.91209 98.3074 0.472134C99.9722 0.472134 101.637 0.472134 103.302 0.472134C103.316 6.03691 103.302 11.6017 103.26 17.1664C102.654 20.5832 100.532 22.7402 96.8923 23.6373C93.8499 24.3332 90.9365 24.0269 88.152 22.7184C85.7622 21.322 84.4445 19.3182 84.1981 16.7069C84.1565 11.2954 84.1423 5.88375 84.1565 0.472134Z" fill="currentColor"></path><path fill-rule="evenodd" clip-rule="evenodd" d="M107.963 0.472134C114.096 0.472134 120.227 0.472134 126.36 0.472134C126.36 1.95264 126.36 3.43322 126.36 4.91372C124.112 4.91372 121.865 4.91372 119.617 4.91372C119.617 11.1166 119.617 17.3195 119.617 23.5225C117.952 23.5225 116.287 23.5225 114.623 23.5225C114.623 17.3195 114.623 11.1166 114.623 4.91372C112.403 4.91372 110.183 4.91372 107.963 4.91372C107.963 3.43322 107.963 1.95264 107.963 0.472134Z" fill="currentColor"></path><path fill-rule="evenodd" clip-rule="evenodd" d="M130.855 0.472134C132.519 0.472134 134.184 0.472134 135.849 0.472134C135.849 3.5098 135.849 6.54739 135.849 9.58505C138.929 9.58505 142.009 9.58505 145.089 9.58505C145.089 6.54739 145.089 3.5098 145.089 0.472134C146.726 0.472134 148.363 0.472134 150 0.472134C150 8.15555 150 15.839 150 23.5225C148.363 23.5225 146.726 23.5225 145.089 23.5225C145.089 20.3572 145.089 17.1919 145.089 14.0266C142.009 14.0266 138.929 14.0266 135.849 14.0266C135.849 17.1919 135.849 20.3572 135.849 23.5225C134.184 23.5225 132.519 23.5225 130.855 23.5225C130.855 15.839 130.855 8.15555 130.855 0.472134Z" fill="currentColor"></path></g></svg>