<svg xmlns="http://www.w3.org/2000/svg" fill="none" viewBox="0 0 236 24" height="24" width="236">
<path fill="white" d="M0.310057 19.2841C-1.21024 22.821 3.23662 24 5.49172 24H31.7295C35.2895 24 37.2025 23.9113 38.8242 22.4661C40.0911 21.3758 42.7009 15.5063 42.7262 15.4556H36.5184L34.2633 19.7025L6.47991 19.601L14.5628 4.47727L42.1435 4.33782L40.2051 7.95079H46.5397C46.5397 7.95079 48.6807 3.79271 48.7694 3.36168C49.3269 1.18122 45.2981 0.0909925 42.3842 0.0909925H19.7318C10.0273 0.0909925 8.74769 3.0194 6.13785 8.14095M51.8733 13.9344H68.6979L71.2824 9.29457H54.4578L51.8733 13.9344ZM203.89 4.46459H229.368C229.368 4.46459 227.353 10.5116 225.06 10.4609H200.735L203.89 4.46459ZM187.56 24H193.666L198.214 15.481C204.042 15.481 224.173 15.481 225.846 15.4049C230.064 15.1387 231.306 12.7934 232.915 10.3341C233.561 9.06638 235.601 4.62939 235.842 3.9068C235.994 3.47612 236.037 3.01456 235.968 2.56303C235.221 0.0783155 232.37 0.0402841 229.469 0.0402841L199.975 0.01493L187.56 24ZM135.527 0.027607H141.735L131.385 19.5503H159.029L169.379 0.027607H175.524C175.524 0.027607 170.57 9.6622 168.087 14.1752C165.262 19.2461 164.198 23.9366 154.823 23.9366H129.598C128.653 23.9836 127.722 23.6953 126.969 23.1224C126.216 22.5496 125.689 21.729 125.481 20.8054C125.341 20.2822 125.341 19.7312 125.481 19.2081M184.532 0.027607L171.913 23.9366H178.248L190.866 0.027607H184.532ZM76.4388 14.7457C75.0705 17.4079 74.5764 19.2207 75.0705 21.0843C75.5646 22.9478 78.5038 23.9493 79.264 23.9366H86.1813C87.1061 22.352 87.6129 21.2364 88.5504 19.6518H79.9861C81.5571 16.8374 87.0555 6.60702 88.297 4.43924C88.297 4.43924 119.121 4.43924 119.058 4.52798C118.994 4.61672 110.886 19.7405 110.937 19.7405H97.8115C99.902 16.9389 101.992 11.3229 97.1274 10.0552C95.6958 12.4892 94.4796 14.8345 93.162 17.4713C92.7241 18.147 92.4911 18.9351 92.4911 19.7405C92.4911 20.5458 92.7241 21.334 93.162 22.0097C93.7407 22.6731 94.4651 23.1934 95.2783 23.5299C96.0916 23.8664 96.9716 24.0099 97.8496 23.9493H105.147C112.584 23.9493 114.915 23.3154 119.59 15.0753C120.287 13.8076 122.77 8.86354 123.39 7.64654C123.891 6.88627 124.196 6.0137 124.278 5.10674C124.36 4.19978 124.216 3.28666 123.859 2.44893C123.43 1.68546 122.795 1.05823 122.027 0.638992C121.258 0.219756 120.387 0.0254532 119.514 0.0783154C110.62 -0.0864868 103.867 0.0909925 95.075 0.00225286C84.9397 -0.0864868 83.014 2.44893 80.5689 7.15214"></path>
</svg>
