<svg width="350" height="88" viewBox="0 0 350 88" fill="none" xmlns="http://www.w3.org/2000/svg">
<path d="M92.5121 8.211H338.131C340.474 8.211 342.368 10.2662 342.377 12.7964V74.7036C342.377 77.2338 340.474 79.289 338.131 79.289H268.45C267.238 79.4635 266.152 80.0451 265.317 80.9273L260.37 87.5H338.14C344.685 87.5 349.991 81.7707 350 74.7036V12.7964C350 5.72928 344.694 0 338.14 0H84.0186L88.7591 6.29154C89.7019 7.39668 91.0217 8.12375 92.5121 8.211Z" fill="url(#paint0_linear_822_1124)"/>
<path d="M251.697 79.289H11.8513C9.50799 79.289 7.61357 77.2338 7.6046 74.7036V12.7964C7.6046 10.2662 9.50799 8.21101 11.8513 8.21101H75.7586C76.9707 8.03651 78.0571 7.44517 78.8921 6.57269L83.8391 1.22842e-05H11.8513C5.30616 -0.00968193 0 5.7196 0 12.7964V74.7036C0 81.7707 5.30616 87.5 11.8513 87.5H260.181L255.441 81.2084C254.498 80.1033 253.169 79.3762 251.688 79.289H251.697Z" fill="white"/>
<path d="M54.2111 55.6931H36.3623C33.1481 55.6931 30.5444 52.872 30.5354 49.4112V38.2435C30.5354 34.7729 33.1481 31.9616 36.3623 31.9519H54.7677C56.4287 31.7193 57.9191 30.905 59.0683 29.7029L65.8559 20.6873H36.3713C27.393 20.6873 20.1206 28.5396 20.1206 38.2338V49.4015C20.1206 59.0957 27.393 66.948 36.3713 66.948H65.8559L59.3646 58.3202C58.0718 56.7982 56.2581 55.8094 54.2201 55.6834L54.2111 55.6931Z" fill="white"/>
<path d="M319.923 66.9579H329.871L310.316 43.3622L329.332 20.542H319.348C317.328 20.542 315.488 21.4048 314.132 22.791L303.672 35.3451L293.634 23.2273C292.252 21.5793 290.25 20.542 288.023 20.542H278.111L297.01 43.3428L277.33 66.9579H287.332C289.424 66.9579 291.309 66.0272 292.683 64.544L303.663 51.3696L314.464 64.3986C315.847 65.9691 317.777 66.9579 319.941 66.9676L319.923 66.9579Z" fill="white"/>
<path d="M80.0954 66.9578C71.1171 66.9578 63.8447 59.1055 63.8447 49.4113V38.2435C63.8447 28.5493 71.1171 20.697 80.0954 20.697H98.4021H98.6625C107.641 20.697 114.913 28.5493 114.913 38.2532V49.421C114.913 59.0182 107.784 66.8027 98.9318 66.9675H98.86H80.0954V66.9578ZM74.2685 38.2435V49.4113C74.2685 52.8818 76.8812 55.6931 80.0954 55.6931H98.4021H98.6625C101.877 55.6931 104.48 52.8721 104.489 49.4113V38.2435C104.489 34.8409 101.984 32.078 98.869 31.952H80.0954C76.8812 31.952 74.2775 34.773 74.2685 38.2435Z" fill="white"/>
<path d="M154.22 20.794H153.906H135.653C126.675 20.794 119.402 28.6463 119.402 38.3405V64.0883C119.447 65.6685 120.632 66.9287 122.096 66.9384H129.835V38.3405C129.835 34.87 132.448 32.0587 135.662 32.049H154.444C157.56 32.175 160.056 34.9378 160.056 38.3308V64.0883C160.101 65.6394 161.259 66.89 162.704 66.9288H170.489V38.3308C170.489 28.6366 163.216 20.7843 154.238 20.7843L154.22 20.794Z" fill="white"/>
<path d="M209.966 20.794H209.652H191.39C182.412 20.794 175.148 28.6463 175.139 38.3405V64.0302C175.157 65.6297 176.36 66.9287 177.842 66.9384H185.572V38.3405C185.572 34.87 188.176 32.0587 191.39 32.049H210.163C213.279 32.1653 215.775 34.9378 215.784 38.3308V64.069C215.82 65.6394 216.987 66.8997 218.441 66.9288H226.217V38.3308C226.217 28.6366 218.944 20.7843 209.966 20.7843V20.794Z" fill="white"/>
<path d="M281.568 38.2338C281.568 28.5396 274.295 20.6873 265.317 20.6873H265.003H246.75C237.772 20.6873 230.499 28.5396 230.499 38.2338V49.4015C230.499 59.0957 237.772 66.948 246.75 66.948H265.362C266.87 66.7445 268.244 66.0562 269.348 65.048L277.204 56.5558H246.75C243.536 56.5558 240.941 53.7445 240.932 50.274L240.959 48.8683H281.577V38.2241L281.568 38.2338ZM271.162 39.1063H240.905L240.923 37.2934C240.977 33.8617 243.563 31.0988 246.741 31.0988H265.515C268.612 31.2249 271.09 33.9392 271.135 37.2934L271.162 39.1063Z" fill="white"/>
<defs>
<linearGradient id="paint0_linear_822_1124" x1="84.0001" y1="0" x2="350" y2="3.58095e-06" gradientUnits="userSpaceOnUse">
<stop stop-color="#FAC41A"/>
<stop offset="1" stop-color="#F15A29"/>
</linearGradient>
</defs>
</svg>
