<svg width="124" height="42" viewBox="0 0 124 42" fill="none" xmlns="http://www.w3.org/2000/svg">
<g clip-path="url(#clip0_83_3578)">
<path d="M34.3486 0.600586H38.6576L48.9459 24.249H43.0676L41.0295 19.2384H31.8433L29.8719 24.249H24.127L34.3486 0.600586ZM36.3525 7.4817L33.4793 14.83H39.2583L36.3525 7.4817Z" fill="white"></path>
<path d="M43.1327 0.600586H49.0778L54.9235 16.0998H54.9903L60.937 0.600586H66.5158L56.7614 24.249H52.5859L43.1327 0.600586Z" fill="white"></path>
<path d="M68.9202 0.600586H74.1311V24.2506H68.9202V0.600586Z" fill="white"></path>
<path d="M94.3381 6.74771C93.8253 6.12422 93.197 5.64562 92.4514 5.3119C91.7042 4.97818 90.843 4.81051 89.863 4.81051C88.883 4.81051 87.9763 4.99935 87.1412 5.37865C86.3061 5.75795 85.5817 6.28701 84.9696 6.96584C84.3575 7.64468 83.8789 8.45211 83.5338 9.38815C83.1887 10.3242 83.0161 11.3367 83.0161 12.4274C83.0161 13.5181 83.1887 14.56 83.5338 15.483C83.8789 16.4076 84.3526 17.2086 84.9533 17.8874C85.554 18.5662 86.2605 19.0953 87.0744 19.4746C87.8868 19.8539 88.7609 20.0427 89.697 20.0427C90.7649 20.0427 91.7123 19.8197 92.536 19.3753C93.3597 18.9292 94.0386 18.3058 94.5742 17.5048L98.9158 20.7443C97.913 22.1476 96.6448 23.1829 95.1081 23.8504C93.5714 24.5178 91.9907 24.8532 90.3644 24.8532C88.5151 24.8532 86.8124 24.5634 85.2545 23.9855C83.6949 23.406 82.3487 22.5774 81.2124 21.4964C80.0761 20.4171 79.1922 19.1083 78.5573 17.5716C77.9224 16.0348 77.605 14.3207 77.605 12.4274C77.605 10.5342 77.9224 8.82002 78.5573 7.28328C79.1922 5.74655 80.0778 4.43935 81.2124 3.35843C82.3487 2.27913 83.6949 1.44891 85.2545 0.869377C86.8124 0.289846 88.5168 0.00170898 90.3644 0.00170898C91.0319 0.00170898 91.7286 0.063569 92.4514 0.185661C93.1742 0.307753 93.8872 0.503101 94.5888 0.770075C95.2904 1.03705 95.9644 1.39356 96.609 1.8396C97.2553 2.28565 97.8332 2.83099 98.346 3.47564L94.3381 6.74933V6.74771Z" fill="white"></path>
<path d="M98.4811 12.4257C98.4811 10.5341 98.7986 8.81831 99.4335 7.28157C100.068 5.74484 100.954 4.43764 102.089 3.35672C103.225 2.27742 104.571 1.4472 106.131 0.867668C107.689 0.288137 109.393 0 111.241 0C113.088 0 114.793 0.289765 116.351 0.867668C117.908 1.4472 119.256 2.2758 120.393 3.35672C121.527 4.43764 122.413 5.74484 123.048 7.28157C123.683 8.81831 124 10.5325 124 12.4257C124 14.319 123.683 16.0331 123.048 17.5699C122.413 19.1066 121.527 20.4154 120.393 21.4947C119.256 22.5756 117.908 23.4042 116.351 23.9838C114.791 24.5633 113.088 24.8514 111.241 24.8514C109.393 24.8514 107.689 24.5617 106.131 23.9838C104.571 23.4042 103.225 22.5756 102.089 21.4947C100.952 20.4154 100.068 19.1066 99.4335 17.5699C98.7986 16.0331 98.4811 14.319 98.4811 12.4257ZM103.892 12.4257C103.892 13.5392 104.065 14.5583 104.41 15.4813C104.755 16.4059 105.25 17.2068 105.896 17.8857C106.542 18.5645 107.316 19.0936 108.218 19.4729C109.119 19.8522 110.127 20.041 111.241 20.041C112.354 20.041 113.362 19.8522 114.264 19.4729C115.165 19.0952 115.939 18.5661 116.585 17.8857C117.231 17.2068 117.726 16.4043 118.071 15.4813C118.416 14.5583 118.589 13.5392 118.589 12.4257C118.589 11.3122 118.416 10.3209 118.071 9.38644C117.726 8.4504 117.231 7.64459 116.585 6.96413C115.939 6.2853 115.165 5.75624 114.264 5.37694C113.362 4.99926 112.354 4.8088 111.241 4.8088C110.127 4.8088 109.119 4.99764 108.218 5.37694C107.316 5.75624 106.542 6.2853 105.896 6.96413C105.25 7.64297 104.755 8.4504 104.41 9.38644C104.065 10.3225 103.892 11.335 103.892 12.4257Z" fill="white"></path>
<path d="M5.22554 10.0734V24.2784H0V1.61322L5.22554 10.0734ZM21.6445 24.2784H15.6424L1.04511 0.563232H7.10088L21.6445 24.2784ZM17.2508 14.4199V0.563232H22.4763V22.8491L17.2508 14.4182V14.4199Z" fill="white"></path>
<path d="M79.0261 34.9022V40.4436C78.751 40.6129 78.4385 40.761 78.0901 40.888C77.7401 41.015 77.3787 41.124 77.0027 41.2136C76.6266 41.3031 76.2457 41.3698 75.8599 41.4122C75.4725 41.4545 75.1111 41.4757 74.7725 41.4757C73.8201 41.4757 72.9704 41.3161 72.2232 40.9987C71.4776 40.6812 70.8476 40.2531 70.3332 39.7126C69.8188 39.1722 69.4281 38.5454 69.1578 37.8308C68.8876 37.1162 68.7525 36.3624 68.7525 35.568C68.7525 34.7313 68.8974 33.9532 69.1888 33.2336C69.4802 32.5141 69.8823 31.889 70.395 31.3599C70.9078 30.8309 71.5248 30.4157 72.2443 30.113C72.9639 29.8118 73.7534 29.6604 74.6097 29.6604C75.6466 29.6604 76.4931 29.7906 77.1508 30.0495C77.8069 30.3083 78.3571 30.6664 78.8015 31.1206L77.7222 32.2797C77.2566 31.8353 76.7634 31.526 76.2457 31.3502C75.7264 31.176 75.1811 31.0881 74.6097 31.0881C73.9634 31.0881 73.3822 31.2069 72.8629 31.4446C72.3436 31.6822 71.8992 32.0029 71.5297 32.405C71.1585 32.8071 70.8737 33.2808 70.6718 33.8262C70.4699 34.3715 70.3706 34.9511 70.3706 35.5648C70.3706 36.1785 70.4813 36.7906 70.7043 37.3359C70.9274 37.8813 71.2334 38.355 71.6257 38.7571C72.0181 39.1592 72.4771 39.475 73.0078 39.7013C73.5369 39.9292 74.1132 40.0431 74.7383 40.0431C75.2787 40.0431 75.7883 39.9926 76.2701 39.8917C76.752 39.7908 77.1622 39.6459 77.5008 39.4554V36.3266H75.0085V34.8973H79.0261V34.9022Z" fill="white"></path>
<path d="M81.9173 29.9484H85.8714C86.591 29.9484 87.1835 30.0461 87.6491 30.2414C88.1147 30.4368 88.4826 30.6858 88.7528 30.987C89.023 31.2882 89.2102 31.6268 89.3161 32.0028C89.4219 32.3789 89.4756 32.7419 89.4756 33.0902C89.4756 33.4386 89.4121 33.7967 89.2851 34.1305C89.1581 34.4642 88.9758 34.7653 88.7365 35.0356C88.4988 35.3058 88.2075 35.5337 87.8623 35.7177C87.5189 35.9032 87.1347 36.0172 86.7114 36.0595L89.9037 41.189H87.9975L85.1389 36.2353H83.4394V41.189H81.9156V29.9468L81.9173 29.9484ZM83.441 34.9021H85.4417C85.7379 34.9021 86.031 34.8777 86.3224 34.8305C86.6138 34.7833 86.8726 34.6953 87.1005 34.5684C87.3284 34.4414 87.5107 34.2591 87.6491 34.0198C87.7858 33.7821 87.8558 33.4712 87.8558 33.0902C87.8558 32.7093 87.7875 32.4 87.6491 32.1607C87.5107 31.923 87.3284 31.7407 87.1005 31.6121C86.8726 31.4851 86.6138 31.3972 86.3224 31.35C86.031 31.3028 85.7379 31.2784 85.4417 31.2784H83.441V34.8988V34.9021Z" fill="white"></path>
<path d="M96.8906 41.4757C96.0327 41.4757 95.2448 41.3243 94.5253 41.0231C93.8057 40.7219 93.1888 40.3068 92.676 39.7761C92.1632 39.2471 91.7611 38.622 91.4697 37.9024C91.1783 37.1829 91.0334 36.4048 91.0334 35.568C91.0334 34.7313 91.1783 33.9532 91.4697 33.2336C91.7611 32.5141 92.1632 31.889 92.676 31.3599C93.1888 30.8309 93.8057 30.4157 94.5253 30.113C95.2448 29.8118 96.0343 29.6604 96.8906 29.6604C97.7469 29.6604 98.5364 29.8118 99.2559 30.113C99.9755 30.4141 100.592 30.8309 101.105 31.3599C101.618 31.889 102.02 32.5141 102.311 33.2336C102.603 33.9532 102.748 34.7313 102.748 35.568C102.748 36.4048 102.603 37.1829 102.311 37.9024C102.02 38.622 101.618 39.2471 101.105 39.7761C100.591 40.3052 99.9755 40.7203 99.2559 41.0231C98.5364 41.3243 97.7469 41.4757 96.8906 41.4757ZM96.8906 40.0464C97.5369 40.0464 98.118 39.9275 98.6373 39.6899C99.1566 39.4522 99.6011 39.1315 99.9706 38.7294C100.342 38.3273 100.627 37.8536 100.828 37.3082C101.029 36.7629 101.13 36.1834 101.13 35.5697C101.13 34.9559 101.029 34.3764 100.828 33.8311C100.627 33.2857 100.342 32.812 99.9706 32.4099C99.5994 32.0078 99.155 31.6871 98.6373 31.4495C98.118 31.2118 97.5369 31.0929 96.8906 31.0929C96.2443 31.0929 95.6632 31.2118 95.1439 31.4495C94.6246 31.6871 94.1802 32.0078 93.8106 32.4099C93.4395 32.812 93.1546 33.2857 92.9527 33.8311C92.7509 34.3764 92.6516 34.9559 92.6516 35.5697C92.6516 36.1834 92.7525 36.7629 92.9527 37.3082C93.153 37.8536 93.4395 38.3273 93.8106 38.7294C94.1818 39.1315 94.6262 39.4522 95.1439 39.6899C95.6632 39.9275 96.2443 40.0464 96.8906 40.0464Z" fill="white"></path>
<path d="M106.37 29.9482V36.8391C106.37 37.1891 106.417 37.5505 106.513 37.9266C106.609 38.3026 106.767 38.6493 106.99 38.9668C107.213 39.2842 107.503 39.5431 107.863 39.7449C108.222 39.9468 108.667 40.0461 109.196 40.0461C109.725 40.0461 110.169 39.9451 110.529 39.7449C110.889 39.5447 111.18 39.2842 111.402 38.9668C111.625 38.6493 111.783 38.3026 111.879 37.9266C111.973 37.5505 112.022 37.1875 112.022 36.8391V29.9482H113.546V37.0784C113.546 37.7345 113.435 38.3303 113.212 38.8642C112.989 39.3982 112.683 39.8621 112.291 40.2544C111.898 40.6468 111.439 40.9479 110.908 41.1596C110.379 41.3712 109.808 41.477 109.193 41.477C108.577 41.477 108.008 41.3712 107.478 41.1596C106.949 40.9479 106.489 40.6468 106.096 40.2544C105.704 39.8621 105.398 39.3998 105.175 38.8642C104.952 38.3303 104.841 37.7345 104.841 37.0784V29.9482H106.365H106.37Z" fill="white"></path>
<path d="M116.341 29.9482H120.295C121.014 29.9482 121.607 30.0459 122.073 30.2413C122.538 30.4366 122.906 30.6857 123.176 30.9868C123.447 31.288 123.634 31.6266 123.74 32.0026C123.845 32.3787 123.899 32.7417 123.899 33.0901C123.899 33.4384 123.845 33.8015 123.74 34.1775C123.634 34.5536 123.447 34.8922 123.176 35.1933C122.906 35.4945 122.538 35.7435 122.073 35.9389C121.607 36.1342 121.014 36.2319 120.295 36.2319H117.866V41.1856H116.342V29.9434L116.341 29.9482ZM117.864 34.9019H119.865C120.161 34.9019 120.454 34.8775 120.746 34.8303C121.037 34.7831 121.296 34.6952 121.524 34.5682C121.752 34.4412 121.934 34.2589 122.073 34.0196C122.209 33.7819 122.279 33.471 122.279 33.0901C122.279 32.7092 122.211 32.3999 122.073 32.1606C121.934 31.9229 121.752 31.7406 121.524 31.612C121.296 31.485 121.037 31.3971 120.746 31.3499C120.454 31.3027 120.161 31.2782 119.865 31.2782H117.864V34.8987V34.9019Z" fill="white"></path>
</g>
<defs>
<clipPath id="clip0_83_3578">
<rect width="124" height="41.4755" fill="white"></rect>
</clipPath>
</defs>
</svg>