<svg
      id='Raggruppa_1276'
      data-name='Raggruppa 1276'
      class='h-10 w-10'
      preserveAspectRatio='xMidYMid meet'
      xmlns='http://www.w3.org/2000/svg'
      xmlns:xlink='http://www.w3.org/1999/xlink'
      width='512'
      height='512'
      viewBox='0 0 512 512'
    >
      <defs>
        <clipPath id="clip-path">
          <rect id="Rettangolo_1143" data-name="Rettangolo 1143" width="512" height="512" fill="none"/>
        </clipPath>
      </defs>
      <g id="Raggruppa_1275" data-name="Raggruppa 1275" clip-path="url(#clip-path)">
        <path id="Tracciato_3543" data-name="Tracciato 3543" d="M512,256c0,141.385-114.615,256-256,256S0,397.384,0,256,114.615,0,256,0,512,114.615,512,256" transform="translate(0 0)" fill="#fff"/>
        <path id="Tracciato_3544" data-name="Tracciato 3544" d="M206.111,323.532a53.419,53.419,0,0,1-38.729-16.443l-14.25,19.731c11.509,11.51,28.317,19.365,51.7,19.365,32.883,0,48.777-16.807,48.777-39.1,0-27.036-25.577-33.067-45.672-37.633-14.067-3.289-24.3-5.846-24.3-14.067,0-7.307,6.212-12.424,17.9-12.424,11.875,0,25.029,4.2,34.894,13.337l14.432-19c-12.057-11.142-28.134-16.989-47.5-16.989-28.682,0-46.22,16.443-46.22,36.72,0,27.22,25.576,32.7,45.489,37.27,14.067,3.287,24.662,6.393,24.662,15.528,0,6.943-6.941,13.7-21.191,13.7" transform="translate(52.628 75.717)" fill="#004d9e"/>
        <path id="Tracciato_3545" data-name="Tracciato 3545" d="M247.051,26.037c-122.063,0-221.013,98.951-221.013,221.015s98.95,221.014,221.013,221.014,221.014-98.953,221.014-221.014S369.116,26.037,247.051,26.037m173.37,216.87-.2-.047c-4.969-1.138-11.15-2.554-11.15-9.31,0-5.433,4.758-9.226,11.573-9.226a16.825,16.825,0,0,1,11.834,4.235l.11.1-3.765,4.957-.134-.126a12.61,12.61,0,0,0-8.5-3.245c-2.662,0-4.25,1.083-4.25,2.9,0,1.841,2.229,2.456,5.865,3.307,4.81,1.092,11.4,2.589,11.4,9.446,0,6.145-4.563,9.813-12.2,9.813-5.34,0-9.672-1.625-12.877-4.825l-.1-.1,3.721-5.148.14.146a12.972,12.972,0,0,0,9.434,4c3.479,0,5.062-1.665,5.062-3.211,0-2.112-2.467-2.853-5.955-3.667M376.88,224.774h6.739V249.2h12.71v5.969H376.88Zm-22.044,0h6.737v30.394h-6.737ZM311.124,254.94l11.67-30.166h8.256l.04.107,11.675,30.287h-7.35l-1.895-5.181h-13.2l-1.892,5.181h-7.4Zm-10.8-26.277-3.765,4.957-.136-.126a12.6,12.6,0,0,0-8.5-3.245c-2.662,0-4.249,1.083-4.249,2.9,0,1.841,2.228,2.456,5.865,3.307,4.809,1.092,11.4,2.589,11.4,9.446,0,6.145-4.563,9.813-12.206,9.813-5.34,0-9.672-1.625-12.874-4.825l-.1-.1,3.718-5.148.14.146a12.972,12.972,0,0,0,9.434,4c3.479,0,5.062-1.665,5.062-3.211,0-2.112-2.467-2.853-5.954-3.667l-.2-.047c-4.969-1.138-11.154-2.554-11.154-9.31,0-5.433,4.761-9.226,11.574-9.226a16.827,16.827,0,0,1,11.835,4.235ZM195.738,85.381H221.01l.05.07,52.64,73.593V85.381h24.665V200H274.636l-.05-.07L220.4,123.6V200H195.738Zm32.391,157.2v12.537h-6.7v-30.2h6.7v11.732h13.766V224.915h6.739v30.2h-6.739V242.58Zm-44.556-17.664h24.154v5.932h-8.684v24.268H192.3V230.849h-8.731Zm-37.886,0h14.136c6.1,0,10.193,3.937,10.193,9.8,0,5.372-3.288,8.14-6.444,8.974l6.751,11.432H162.63l-.047-.087-8.993-16.413h5.29c2.537,0,4.309-1.625,4.309-3.952s-1.772-3.949-4.309-3.949h-6.5v24.4h-6.693ZM116.8,224.4c9.153,0,15.8,6.567,15.8,15.616s-6.643,15.615-15.8,15.615c-9.126,0-15.751-6.568-15.751-15.615S107.669,224.4,116.8,224.4m-55.9.515h6.791l.051.071L81.271,243.9V224.915h6.693v30.2H81.575l-.05-.071L67.593,235.417v19.7H60.9ZM247.051,432.253c-95.576,0-174.234-72.4-184.141-165.352H431.193c-9.907,92.948-88.566,165.352-184.142,165.352" transform="translate(8.949 8.948)" fill="#0158a6"/>
        <path id="Tracciato_3546" data-name="Tracciato 3546" d="M95.852,197.388c5.252,0,8.921-3.964,8.921-9.638s-3.668-9.637-8.921-9.637c-5.226,0-8.876,3.963-8.876,9.637s3.651,9.638,8.876,9.638" transform="translate(29.892 61.214)" fill="#004d9e"/>
        <path id="Tracciato_3547" data-name="Tracciato 3547" d="M251.18,178.561l-4.762,13.126H255.9Z" transform="translate(84.689 61.368)" fill="#004d9e"/>
      </g>
    </svg>