<svg viewBox="0 0 205 37" fill="none" xmlns="http://www.w3.org/2000/svg" width="204" height="49"><mask id="mask0_1186_7790" maskUnits="userSpaceOnUse" x="0" y="0" width="205" height="37" style="mask-type: alpha;"><path fill-rule="evenodd" clip-rule="evenodd" d="M11.0578 15.2383C4.99154 23.6194 0.0158119 30.5106 0.000635928 30.5522C-0.014623 30.5937 0.246603 30.6264 0.581138 30.6248L1.18926 30.6218L10.3944 17.8948C15.4572 10.8949 20.1699 4.37814 20.8671 3.41292L22.1348 1.65806L22.111 0.829031L22.0873 0L11.0578 15.2383ZM12.7995 17.5467C7.69129 24.6109 3.48091 30.4458 3.44318 30.5129C3.38488 30.6166 3.46797 30.6313 3.99772 30.6106L4.62085 30.5864L13.3748 18.4898L22.1288 6.39315V5.54397C22.1288 5.07684 22.1194 4.69644 22.1081 4.69867C22.0967 4.70082 17.9078 10.4824 12.7995 17.5467ZM20.113 21.5449L9.2652 36.5329L9.86436 36.5574C10.2748 36.5742 10.4962 36.5482 10.5673 36.4748C10.6244 36.4159 15.0268 30.3469 20.3503 22.9882C25.6739 15.6295 30.2498 9.30624 30.5189 8.93657L31.0082 8.2643L30.9844 7.41057L30.9607 6.55684L20.113 21.5449ZM14.4857 19.9464C10.3198 25.7002 6.88149 30.4574 6.845 30.5178C6.79218 30.6054 6.90397 30.6277 7.39441 30.6277H8.01015L15.0695 20.8718L22.1288 11.1159V10.3004C22.1288 9.85191 22.1134 9.48488 22.0945 9.48488C22.0756 9.48488 18.6517 14.1926 14.4857 19.9464ZM22.2117 23.3657C17.3998 30.013 13.2829 35.7043 13.0632 36.013L12.6636 36.5742L13.312 36.5698L13.9603 36.5655L22.3776 24.9254C27.0071 18.5233 30.8429 13.2154 30.9015 13.1301C30.9757 13.0221 31.001 12.717 30.9844 12.1272L30.9607 11.2796L22.2117 23.3657ZM16.4482 21.9626C13.3466 26.2479 10.6659 29.9522 10.4909 30.1945L10.1727 30.6349L10.8156 30.6107L11.4584 30.5864L16.7965 23.2106L22.1345 15.8349L22.1109 15.0031L22.0873 14.1712L16.4482 21.9626ZM24.698 24.6581C21.2552 29.4149 17.9057 34.0435 17.2546 34.9439L16.0706 36.5809L16.7276 36.5569L17.3848 36.5329L24.1935 27.1245L31.0022 17.716V16.8627C31.0022 16.3934 30.9921 16.0094 30.9799 16.0094C30.9676 16.0094 28.1407 19.9014 24.698 24.6581ZM74.4739 25.6905C73.0994 28.7467 71.4349 32.4469 70.7749 33.9133L69.5748 36.5794L70.4931 36.5562L71.4113 36.5329L72.2992 34.5507L73.1872 32.5686H76.6456H80.104L80.9962 34.5507L81.8883 36.5329L83.1585 36.5557C84.3423 36.5771 84.4259 36.5685 84.3865 36.4319C84.3247 36.2181 77.1013 20.2748 77.0316 20.1983C76.9993 20.1628 75.8483 22.6343 74.4739 25.6905ZM146.155 28.2579C144.152 32.7206 142.497 36.4175 142.479 36.4731C142.453 36.5486 142.671 36.574 143.343 36.5736L144.242 36.573L145.147 34.5492L146.052 32.5255L149.499 32.547L152.945 32.5686L153.833 34.5383C154.321 35.6217 154.737 36.5239 154.756 36.5433C154.776 36.5627 155.354 36.5683 156.04 36.5557L157.289 36.5329L153.585 28.3372C151.548 23.8296 149.862 20.1421 149.839 20.1428C149.816 20.1434 148.159 23.7952 146.155 28.2579ZM89.5243 20.6151C89.4992 20.7393 88.711 24.3457 87.7728 28.6292C86.8345 32.9129 86.0669 36.4528 86.0669 36.4959C86.0669 36.5405 86.4599 36.5742 86.9792 36.5742C87.4809 36.5742 87.8914 36.5437 87.8914 36.5064C87.8914 36.3845 89.9567 26.8915 89.9906 26.8578C90.0169 26.8316 93.0161 33.1208 94.4463 36.2013L94.7526 36.8607L95.7216 34.8798C96.2546 33.7903 97.3669 31.5149 98.1936 29.8232C99.0202 28.1316 99.7077 26.7588 99.7213 26.7724C99.735 26.786 100.157 28.9133 100.659 31.4998C101.16 34.0863 101.591 36.2861 101.616 36.3883C101.66 36.5704 101.685 36.5742 102.862 36.5742C103.766 36.5742 104.063 36.5486 104.065 36.4709C104.07 36.1814 100.944 20.4038 100.891 20.4563C100.857 20.4901 99.5755 23.0806 98.043 26.2128C96.5106 29.3451 95.2322 31.9328 95.2022 31.9633C95.1722 31.9938 93.9162 29.4166 92.411 26.2363C90.9058 23.056 89.6509 20.4394 89.6223 20.4216C89.5936 20.4038 89.5495 20.491 89.5243 20.6151ZM126.417 20.9765C126.343 21.3108 125.544 24.9569 124.642 29.0792L123.002 36.5742H123.919H124.836L125.862 31.8046C126.426 29.1814 126.912 26.9887 126.943 26.932C126.974 26.8744 128.036 29.0306 129.353 31.8243C130.648 34.5717 131.719 36.8084 131.733 36.7946C131.747 36.7809 132.858 34.5285 134.202 31.7894C135.546 29.0501 136.659 26.7958 136.675 26.7796C136.691 26.7634 137.071 28.6354 137.519 30.9395C137.966 33.2437 138.395 35.4448 138.471 35.8309L138.61 36.5329L139.829 36.5557C140.5 36.5683 141.05 36.5497 141.051 36.5145C141.056 36.364 137.95 20.5052 137.905 20.4524C137.878 20.4204 136.59 22.9848 135.044 26.1511C133.498 29.3173 132.209 31.9354 132.18 31.9691C132.151 32.0028 130.901 29.4384 129.402 26.2704C127.903 23.1024 126.649 20.4787 126.614 20.4397C126.58 20.4007 126.491 20.6423 126.417 20.9765ZM44.644 20.5217C41.1886 21.0446 38.4706 23.5686 37.7635 26.9112C37.3833 28.7081 37.5979 30.7353 38.3368 32.328C39.3395 34.4893 41.1824 35.9904 43.6758 36.6767C44.222 36.827 44.5475 36.8527 45.9708 36.8575C47.5404 36.8629 47.6737 36.8509 48.4542 36.6337C51.8333 35.6937 54.0321 33.0808 54.3896 29.5806C54.7624 25.9312 52.9433 22.6324 49.7672 21.1983C48.6631 20.6997 47.8483 20.5377 46.3026 20.5096C45.5272 20.4956 44.7808 20.5011 44.644 20.5217ZM110.199 20.5927C108.495 20.9755 107.139 22.265 106.761 23.8631C106.421 25.2981 106.792 26.7627 107.723 27.6662C108.329 28.2532 109.078 28.6601 110.906 29.3939C112.683 30.1071 113.519 30.5904 113.885 31.1169C114.614 32.1639 114.48 33.5608 113.563 34.4735C112.248 35.7834 109.389 35.6912 107.513 34.2783C107.289 34.1102 107.054 33.9354 106.989 33.89C106.87 33.807 106.731 33.9344 106.298 34.5207L106.138 34.7384L106.554 35.1401C107.826 36.3698 109.585 36.9836 111.526 36.8754C114.187 36.7273 115.996 35.4576 116.545 33.3532C116.65 32.9481 116.677 32.5724 116.652 31.8221C116.622 30.8841 116.603 30.7925 116.321 30.2018C115.735 28.9727 114.898 28.386 112.276 27.3655C111.389 27.0201 110.45 26.6086 110.189 26.451C109.3 25.9129 108.94 25.3276 108.934 24.4085C108.93 23.6302 109.312 22.8632 109.899 22.4713C111.092 21.676 112.898 21.8207 114.302 22.8242C114.651 23.0734 114.951 23.2773 114.968 23.2773C114.986 23.2773 115.154 23.0636 115.343 22.8024L115.685 22.3275L115.259 21.936C114.722 21.4423 113.882 20.9464 113.185 20.7122C112.483 20.4763 110.985 20.4163 110.199 20.5927ZM178.45 28.5217V36.5742H179.278H180.107L180.128 30.9467L180.15 25.3192L186.046 30.926C189.289 34.0098 192.041 36.623 192.162 36.7331L192.382 36.9333V28.8664V20.7996H191.512H190.641L190.62 26.3609L190.599 31.9222L184.558 26.1957C181.236 23.0461 178.503 20.4693 178.484 20.4693C178.465 20.4693 178.45 24.0929 178.45 28.5217ZM25.2801 28.5756C22.1557 32.8917 19.587 36.457 19.5718 36.4986C19.5566 36.5401 19.8205 36.5742 20.1582 36.5742H20.7722L25.8899 29.5032L31.0076 22.4322L30.9842 21.5802L30.9607 20.7283L25.2801 28.5756ZM57.0418 28.6804V36.5742H58.2858H59.5297V33.1054V29.6367H60.3383H61.1468L63.303 33.1033L65.4591 36.57L66.8493 36.5721L68.2393 36.5742L68.0418 36.2645C67.9331 36.0942 66.8877 34.4715 65.7188 32.6588C64.5497 30.846 63.5939 29.3408 63.5946 29.3139C63.5954 29.287 63.806 29.1744 64.0628 29.0637C65.1882 28.5783 65.9914 27.6951 66.3496 26.5495C66.5961 25.7612 66.5982 24.3861 66.354 23.6404C65.9297 22.3444 64.9807 21.5033 63.4151 21.0357C62.849 20.8667 62.5993 20.8512 59.9236 20.8201L57.0418 20.7866V28.6804ZM159.127 28.6869V36.5742H160.33H161.532V33.1025V29.6309L162.379 29.6544L163.226 29.678L165.376 33.1261L167.526 36.5742H168.883C169.629 36.5742 170.24 36.555 170.24 36.5315C170.24 36.5081 169.195 34.8672 167.917 32.8851L165.595 29.2814L166.04 29.1013C166.687 28.8392 167.01 28.6207 167.481 28.1242C168.249 27.3156 168.581 26.4007 168.581 25.0943C168.581 23.7205 168.241 22.8501 167.403 22.0773C166.799 21.5203 166.044 21.158 165.069 20.9578C164.421 20.8245 163.933 20.8016 161.719 20.8007L159.127 20.7996V28.6869ZM172.313 28.6869V36.5742H173.557H174.801V28.6869V20.7996H173.557H172.313V28.6869ZM196.279 28.6869V36.5742H200.592H204.904V35.8309V35.0876H201.836H198.767V32.0318V28.9759H201.67H204.572V28.2326V27.4893H201.67H198.767V24.8878V22.2862H201.794H204.821V21.5429V20.7996H200.55H196.279V28.6869ZM47.4545 22.1187C49.6492 22.6777 51.2167 24.4954 51.696 27.0372C51.908 28.1613 51.8323 30.002 51.5334 30.9953C51.1745 32.1873 50.7255 32.9573 49.9122 33.7752C49.3417 34.3488 49.0688 34.5526 48.5002 34.8298C47.5621 35.2869 46.7823 35.4453 45.7221 35.3943C43.5834 35.2912 41.8647 34.1367 40.9147 32.1651C39.8948 30.0483 39.9318 27.1888 41.0073 25.0135C41.7095 23.5929 43.0224 22.5179 44.5375 22.1226C45.3684 21.9057 46.6119 21.9041 47.4545 22.1187ZM62.5489 22.4478C63.1865 22.6955 63.6798 23.1869 63.9285 23.8218C64.0835 24.2175 64.1192 24.4657 64.1172 25.1355C64.1141 26.2037 63.9098 26.7847 63.3441 27.335C62.7267 27.9354 62.2306 28.0879 60.7529 28.1318L59.5297 28.1681V25.177V22.186L60.7944 22.2218C61.8621 22.252 62.1353 22.2872 62.5489 22.4478ZM164.231 22.3305C165.599 22.6817 166.23 23.6645 166.162 25.3392C166.134 26.0408 166.096 26.2077 165.858 26.6909C165.666 27.0788 165.472 27.3279 165.205 27.5315C164.629 27.969 164.154 28.085 162.755 28.1293L161.532 28.1681V25.1858V22.2036H162.634C163.356 22.2036 163.907 22.2475 164.231 22.3305ZM77.9804 27.7784C78.6988 29.4137 79.3048 30.7981 79.327 30.8549C79.3588 30.9361 78.7929 30.9581 76.6634 30.9581C75.1676 30.9581 73.9593 30.9257 73.9593 30.8856C73.9593 30.8458 74.5227 29.5357 75.2112 27.9743C75.8997 26.413 76.4979 25.0468 76.5404 24.9382C76.5829 24.8298 76.6304 24.7555 76.646 24.7731C76.6615 24.7907 77.262 26.1431 77.9804 27.7784ZM150.891 27.9366C151.59 29.5238 152.161 30.853 152.161 30.8903C152.161 30.9275 150.944 30.9581 149.457 30.9581C146.998 30.9581 146.758 30.9459 146.805 30.8242C146.833 30.7506 147.443 29.3582 148.16 27.73C149.172 25.4309 149.48 24.8011 149.542 24.9102C149.585 24.9875 150.192 26.3494 150.891 27.9366ZM27.0226 30.8937C24.8566 33.8862 23.0541 36.3885 23.0171 36.4544C22.961 36.5543 23.0526 36.5742 23.5702 36.5742H24.1906L27.5992 31.8667L31.0078 27.1591L30.9843 26.3059L30.9607 25.4527L27.0226 30.8937ZM28.6603 33.3538L26.3597 36.5329L26.9105 36.5576C27.2134 36.5712 27.5057 36.5653 27.5598 36.5446C27.614 36.5239 28.4121 35.4649 29.3332 34.1914L31.0081 31.8757L30.9844 31.0252L30.9607 30.1747L28.6603 33.3538ZM30.3672 35.7189L29.7737 36.5329L30.3564 36.5573C30.677 36.5708 30.9548 36.5663 30.9738 36.5473C30.9929 36.5284 30.9977 36.1511 30.9846 35.7089L30.9607 34.9049L30.3672 35.7189Z" fill="black"></path></mask><g mask="url(#mask0_1186_7790)"><path d="M22.5 16.5V-1L-2 32.5H11L22.5 16.5Z" fill="#EE3342"></path><path d="M31.5 38V4.5L7.5 38H31.5Z" fill="#1C295C"></path><rect x="35" y="15" width="172" height="23" fill="#1C295C"></rect></g></svg>