<svg id="Layer_1" data-name="Layer 1" xmlns="http://www.w3.org/2000/svg" viewBox="0 0 201.51 58.24"><defs><style>.cls-1{fill:#fff;}.cls-2{fill:#939393;}</style></defs><title>pa-logo</title><path class="cls-1" d="M52.43,20.87,50.06,35.82a.09.09,0,0,1-.06.07c-3,1.21-5.56,2.36-10,2.36-8.45,0-12.18-3.69-11.21-9.9C30,21.45,38,20,42.24,20a20.14,20.14,0,0,1,4.13.42.09.09,0,0,0,.11-.08c.31-3.09-.73-4.8-4-4.85a20.55,20.55,0,0,0-6.52,1.09.09.09,0,0,1-.11-.05l-1.64-4.5a.09.09,0,0,1,0-.11,22.14,22.14,0,0,1,8.56-1.66C48.6,10.29,53.45,14.56,52.43,20.87ZM40.2,33a14.33,14.33,0,0,0,4.36-.66.09.09,0,0,0,.06-.07l1.09-6.95a.09.09,0,0,0-.07-.1,14.39,14.39,0,0,0-3.41-.37c-3.06,0-7,.83-7.62,4.37C34.23,31.79,36.22,33,40.2,33Z"/><path class="cls-1" d="M76,33.86A.09.09,0,0,1,76,34,14.25,14.25,0,0,1,65.49,38.2c-9.27,0-12.81-6.89-11.6-14.42,1.12-7,6.31-13.49,15.29-13.49,3.9,0,7.46,1.48,9.46,4.2a.09.09,0,0,1,0,.12L74,18.44a.09.09,0,0,1-.13,0A5.76,5.76,0,0,0,69,16c-5,0-8.06,4.08-8.74,8.59-.68,4,.78,7.77,5.39,7.77,3,0,4.79-1.73,6-2.76a.09.09,0,0,1,.12,0Z"/><path class="cls-1" d="M82,4.27a3.93,3.93,0,0,1,3.74-3.2A3.36,3.36,0,0,1,89,5,4,4,0,0,1,85.26,8.4,3.4,3.4,0,0,1,82,4.27Z"/><path class="cls-1" d="M16.51,10.29a30.32,30.32,0,0,0-11.6,2.55.09.09,0,0,0-.06.07L.06,43.23h0a4.25,4.25,0,0,0,4.13,5.15H4.5l1-.07a.09.09,0,0,0,.08-.08L7.23,37.61a.09.09,0,0,1,.11-.07,26.5,26.5,0,0,0,5.54.66c8.74,0,13.93-6.5,15-13.54C29.13,17.13,25.64,10.29,16.51,10.29Zm5,13.4c-.73,4.51-3.93,8.69-8.64,8.69a13.71,13.71,0,0,1-4.59-.85.09.09,0,0,1-.06-.1l2.21-13.91a.09.09,0,0,1,0-.07,11.7,11.7,0,0,1,5.69-1.39C20.59,16.07,22.14,19.75,21.51,23.69Z"/><path class="cls-1" d="M81.46,10.63a.09.09,0,0,0-.09.08L77.92,32.62v.09h0A4.25,4.25,0,0,0,82,37.81h1.25a.09.09,0,0,0,.09-.08l4.24-27a.09.09,0,0,0-.09-.1Z"/><path class="cls-1" d="M107,4.27a3.93,3.93,0,0,1,3.74-3.2,3.36,3.36,0,0,1,3.3,4,4,4,0,0,1-3.74,3.35A3.4,3.4,0,0,1,107,4.27Z"/><path class="cls-1" d="M106.53,10.63a.09.09,0,0,0-.09.08L103,32.62v.09h0a4.25,4.25,0,0,0,4.13,5.1h1.25a.09.09,0,0,0,.09-.08l4.24-27a.09.09,0,0,0-.09-.1Z"/><path class="cls-1" d="M102.48,5.29a9.85,9.85,0,0,1,2.81.36.09.09,0,0,0,.11-.08L105.77.8a.09.09,0,0,0-.06-.09,14.84,14.84,0,0,0-5-.7c-5.1,0-9.22,4.17-10.24,10.48L87,32.63v0a4.25,4.25,0,0,0,4.11,5.16h1.27a.09.09,0,0,0,.09-.08l3.42-21.88a.09.09,0,0,1,.09-.08h7.22a.09.09,0,0,0,.09-.08l.8-5a.09.09,0,0,0-.09-.1H96.92a.09.09,0,0,1-.09-.11C97.61,7.56,99,5.29,102.48,5.29Z"/><path class="cls-1" d="M134.9,33.86a.09.09,0,0,1,0,.13,14.25,14.25,0,0,1-10.46,4.21c-9.27,0-12.81-6.89-11.6-14.42,1.12-7,6.31-13.49,15.29-13.49,3.9,0,7.46,1.48,9.46,4.2a.09.09,0,0,1,0,.12l-4.62,3.82a.09.09,0,0,1-.13,0A5.76,5.76,0,0,0,128,16c-5,0-8.06,4.08-8.74,8.59-.68,4,.78,7.77,5.39,7.77,3,0,4.79-1.73,6-2.76a.09.09,0,0,1,.12,0Z"/><path class="cls-1" d="M60.88,53.4a3.08,3.08,0,0,1,3.33-3.33s5,0,5.65,0a.07.07,0,0,0,.07-.07c0-.31,0-1.59,0-1.61a2.19,2.19,0,0,0-2.46-2.48,60.89,60.89,0,0,0-6.08.39.07.07,0,0,1-.08-.07v-.88a.07.07,0,0,1,.05-.07,25.12,25.12,0,0,1,6.17-.74,3.5,3.5,0,0,1,3.83,3.85V58a.07.07,0,0,1-.07.07h-.91A.07.07,0,0,1,70.3,58l-.36-1.46a.07.07,0,0,0-.1,0c-.52.25-3.5,1.72-5.64,1.72a3.14,3.14,0,0,1-3.33-3.3Zm3.33,3.4a22.22,22.22,0,0,0,5.67-1.33.07.07,0,0,0,0-.07V51.23a.07.07,0,0,0-.08-.07l-5.64.34a1.82,1.82,0,0,0-1.9,2v1.3A1.77,1.77,0,0,0,64.21,56.8Z"/><path class="cls-1" d="M78.7,44.7c3.09,0,5.07.3,5.07,4.7,0,1.94-1.1,2.84-3.42,2.84h-5.7a.07.07,0,0,0-.07.07c0,3.72.93,4.46,2.94,4.46a40.65,40.65,0,0,0,5.91-.32.07.07,0,0,1,.08.07v.92a.07.07,0,0,1-.05.07,20.92,20.92,0,0,1-5.94.69c-3.38,0-4.37-1.73-4.37-6.83C73.15,45.47,74.73,44.7,78.7,44.7Zm1.65,6.14c1.2,0,2-.3,2-1.44,0-3-.84-3.28-3.63-3.28-3,0-4.13.27-4.14,4.64a.07.07,0,0,0,.07.07Z"/><path class="cls-1" d="M85.63,44.8h.83a.07.07,0,0,1,.07.05L87,46.39a.07.07,0,0,0,.11,0,9.63,9.63,0,0,1,5-1.78,6.22,6.22,0,0,1,1.81.18.07.07,0,0,1,0,.07v1.26a.07.07,0,0,1-.08.07,10,10,0,0,0-1.77-.14c-2.06,0-3.18.61-5.08,1.52a.07.07,0,0,0,0,.06V58a.07.07,0,0,1-.07.07H85.63a.07.07,0,0,1-.07-.07V44.87A.07.07,0,0,1,85.63,44.8Z"/><path class="cls-1" d="M95.7,44.8H97a.07.07,0,0,1,.07.07V58a.07.07,0,0,1-.07.07H95.7a.07.07,0,0,1-.07-.07V44.87A.07.07,0,0,1,95.7,44.8Z"/><path class="cls-1" d="M98.83,53.4a3.08,3.08,0,0,1,3.33-3.33s5,0,5.65,0a.07.07,0,0,0,.07-.07c0-.31,0-1.59,0-1.61a2.19,2.19,0,0,0-2.46-2.48,60.89,60.89,0,0,0-6.08.39.07.07,0,0,1-.08-.07v-.88a.07.07,0,0,1,.05-.07,25.12,25.12,0,0,1,6.17-.74,3.5,3.5,0,0,1,3.83,3.85V58a.07.07,0,0,1-.07.07h-.91a.07.07,0,0,1-.07-.05l-.36-1.46a.07.07,0,0,0-.1,0c-.52.25-3.5,1.72-5.64,1.72a3.14,3.14,0,0,1-3.33-3.3Zm3.33,3.4a22.22,22.22,0,0,0,5.67-1.33.07.07,0,0,0,0-.07V51.23a.07.07,0,0,0-.08-.07l-5.64.34a1.82,1.82,0,0,0-1.9,2v1.3A1.77,1.77,0,0,0,102.16,56.8Z"/><path class="cls-1" d="M111.17,44.65h1.28a.07.07,0,0,1,.07.07v10.2c0,1.66,1,1.73,2,1.73h4.84a.07.07,0,0,1,.07.07V58a.07.07,0,0,1-.07.07H114.5c-1.65,0-3.4-.33-3.4-3.15V44.72A.07.07,0,0,1,111.17,44.65Z"/><path class="cls-1" d="M120.15,47.83c0-2.05.88-3.26,3.45-3.26,1.28,0,4.85.21,6.21.33a.07.07,0,0,1,.06.07v.92a.07.07,0,0,1-.07.07h-6.2c-1.77,0-2,.68-2,1.86V49c0,1.64.78,1.68,2,1.68h3.7a2.93,2.93,0,0,1,3.25,3.1V55c0,2.73-1.65,3.12-3.25,3.12-1.2,0-5.46-.29-6.53-.39a.07.07,0,0,1-.06-.07v-.89a.07.07,0,0,1,.07-.07h6.52A1.54,1.54,0,0,0,129.12,55V53.76c0-1-.5-1.67-1.83-1.67h-3.7c-2.35,0-3.45-.53-3.45-3.11Z"/><path class="cls-2" d="M173.14,50.22a1.1,1.1,0,0,1-1.1-1.1V28.57a1.1,1.1,0,0,1,2.19,0V49.13A1.1,1.1,0,0,1,173.14,50.22Z"/><circle class="cls-2" cx="173.14" cy="55.7" r="2.53"/><circle class="cls-2" cx="173.14" cy="28.57" r="2.53"/><path class="cls-1" d="M179.72,56a1.1,1.1,0,0,1-.26-2.16,26.29,26.29,0,0,0,10.64-5.44,1.1,1.1,0,1,1,1.42,1.67A28.5,28.5,0,0,1,180,56,1.1,1.1,0,0,1,179.72,56Z"/><path class="cls-1" d="M197.41,42.05a1.1,1.1,0,0,1-1-1.6,25.65,25.65,0,0,0,2.88-11.89,26.18,26.18,0,0,0-52.35,0,25.65,25.65,0,0,0,2.88,11.89,1.1,1.1,0,1,1-1.95,1,27.82,27.82,0,0,1-3.12-12.89,28.37,28.37,0,0,1,56.74,0,27.82,27.82,0,0,1-3.12,12.89A1.1,1.1,0,0,1,197.41,42.05Z"/><path class="cls-1" d="M166.67,56a1.09,1.09,0,0,1-.26,0,28.49,28.49,0,0,1-11.63-5.92,1.1,1.1,0,1,1,1.42-1.67,26.28,26.28,0,0,0,10.73,5.46,1.1,1.1,0,0,1-.26,2.16Z"/><path class="cls-1" d="M185.07,41.59a1.1,1.1,0,0,1-.77-1.87,15.67,15.67,0,0,0,0-22.3,1.1,1.1,0,0,1,1.54-1.56,17.86,17.86,0,0,1,0,25.41A1.09,1.09,0,0,1,185.07,41.59Z"/><path class="cls-1" d="M161.17,41.55a1.09,1.09,0,0,1-.77-.32,17.86,17.86,0,0,1,0-25.37A1.1,1.1,0,1,1,162,17.42a15.67,15.67,0,0,0,0,22.26,1.1,1.1,0,0,1-.77,1.87Z"/><path class="cls-1" d="M164.85,38a1.09,1.09,0,0,1-.77-.32,12.82,12.82,0,0,1,0-18.14A1.1,1.1,0,1,1,165.63,21a10.63,10.63,0,0,0,0,15,1.1,1.1,0,0,1-.77,1.87Z"/><path class="cls-1" d="M181.44,38a1.1,1.1,0,0,1-.77-1.87,10.63,10.63,0,0,0,0-15,1.1,1.1,0,0,1,1.55-1.55,12.82,12.82,0,0,1,0,18.13A1.09,1.09,0,0,1,181.44,38Z"/><path class="cls-1" d="M168.48,34.32a1.09,1.09,0,0,1-.77-.32,7.69,7.69,0,0,1,0-10.88,1.1,1.1,0,1,1,1.55,1.55,5.5,5.5,0,0,0,0,7.78,1.1,1.1,0,0,1-.77,1.87Z"/><path class="cls-1" d="M177.81,34.32a1.1,1.1,0,0,1-.77-1.87,5.5,5.5,0,0,0,0-7.77,1.1,1.1,0,1,1,1.55-1.55,7.69,7.69,0,0,1,0,10.87A1.09,1.09,0,0,1,177.81,34.32Z"/><path class="cls-2" d="M181.42,46.85a14.92,14.92,0,0,1-8.28-2.48,15.05,15.05,0,0,1-16.55,0,14.91,14.91,0,0,1-4.55,2,1.1,1.1,0,0,1-.54-2.12,12.76,12.76,0,0,0,4.44-2.11,1.1,1.1,0,0,1,1.3,0,12.86,12.86,0,0,0,15.25,0,1.1,1.1,0,0,1,1.3,0,12.86,12.86,0,0,0,15.25,0,1.1,1.1,0,0,1,1.3,0,13.51,13.51,0,0,0,4.54,2.14,1.1,1.1,0,1,1-.55,2.12,15.92,15.92,0,0,1-4.64-2A14.93,14.93,0,0,1,181.42,46.85Z"/></svg>