<?xml version="1.0" encoding="UTF-8"?>
<svg xmlns="http://www.w3.org/2000/svg" id="Layer_2" data-name="Layer 2" viewBox="0 0 223.34 17.62">
  <defs>
    <style>
      .cls-1 {
        fill: #231f20;
      }

      .cls-1, .cls-2, .cls-3 {
        fill-rule: evenodd;
        stroke-width: 0px;
      }

      .cls-2 {
        fill: #b3b3b3;
      }

      .cls-3 {
        fill: #fff;
      }
    </style>
  </defs>
  <g id="Layer_1-2" data-name="Layer 1">
    <g>
      <g>
        <polygon class="cls-2" points="91.83 .05 58.9 .05 80.5 7.45 91.83 .05"></polygon>
        <polygon class="cls-2" points="35.31 17.6 12.27 9.58 0 17.6 35.31 17.6"></polygon>
        <path class="cls-3" d="M54.69.12c-1-.02-1.99-.04-2.86-.07-.86-.02-1.6-.05-4.15,0-2.55.05-6.91.17-10.92.47-4.02.3-7.69.77-10.57,1.37-2.88.59-4.97,1.3-6.25,1.89-1.28.6-1.76,1.09-1.84,1.56-.08.47.25.92.91,1.37.67.45,1.7.81,2.71,1.15l19.84,6.81c.64.22,1.29.45,1.74.67.44.22.7.42.74.61.04.2-.14.4-.37.55-.24.15-.54.25-.94.36-.4.11-.9.22-1.51.33-.6.11-1.3.22-2.01.3.8.02,1.6.04,2.35.05.76.01,1.47.02,2.16.03.69.01,1.34.03,3.76-.02,2.41-.05,6.57-.17,10.45-.47,3.89-.3,7.5-.78,10.34-1.37,2.84-.59,4.9-1.29,6.18-1.88,1.28-.6,1.77-1.09,1.86-1.57.09-.47-.21-.93-.86-1.38-.66-.45-1.7-.79-2.7-1.13l-20.05-6.82c-.59-.2-1.17-.42-1.6-.63-.43-.21-.71-.38-.79-.57-.08-.19.05-.39.27-.54.22-.16.53-.27.93-.38.4-.11.89-.24,1.49-.35.6-.12,1.31-.24,2.03-.34h-.34Z"></path>
      </g>
      <g>
        <polygon class="cls-2" points="219.67 10.18 92.73 10.18 89.15 17.62 216.81 17.62 219.67 10.18"></polygon>
        <path class="cls-3" d="M95.6,4.94h1.61c-.03.06-.05.1-.06.16-.17.4-.25.67-.23.8.01.07.06.13.13.18.07.05.17.1.3.13.2.06.68.1,1.41.13.74.03,1.75.04,3.02.04.92,0,1.72-.01,2.4-.04.67-.03,1.22-.07,1.65-.12.42-.05.77-.17,1.05-.34.28-.18.49-.42.63-.72.14-.31.19-.54.13-.69-.03-.08-.08-.14-.16-.2-.08-.05-.2-.1-.34-.13-.28-.06-.7-.1-1.25-.11-.28,0-.87-.01-1.77-.01-.9,0-2.12,0-3.65,0-1.03,0-1.83-.06-2.39-.16-.28-.06-.52-.13-.72-.21-.2-.09-.35-.19-.46-.31-.13-.14-.19-.32-.19-.54,0-.22.07-.47.21-.76.15-.32.36-.6.62-.83.27-.23.59-.42.96-.57.37-.14.76-.25,1.16-.32.2-.04.44-.07.71-.1.27-.03.58-.06.92-.08.57-.04,1.18-.07,1.84-.09.66-.02,1.36-.03,2.12-.03,1.4,0,2.46.04,3.18.12.36.04.68.1.94.17.26.07.48.15.64.25.28.16.43.36.45.58.01.11,0,.25-.04.42-.04.17-.11.37-.21.6h-1.65c.1-.2.18-.4.2-.54.02-.12.01-.2-.03-.26-.11-.18-.47-.32-1.08-.4-.31-.04-.7-.07-1.17-.09-.48-.02-1.03-.03-1.68-.03-1.6,0-2.82.04-3.65.1-.42.04-.77.08-1.07.14-.3.06-.54.13-.72.21-.17.08-.31.18-.44.3-.13.13-.23.28-.31.46-.15.32-.19.55-.12.68.04.07.1.13.21.18.11.05.25.09.42.13.26.05.65.09,1.18.12.53.03,1.2.04,2,.05.27,0,.74,0,1.42,0,.67,0,1.55,0,2.62,0,.89,0,1.55.05,1.98.15.22.05.4.11.56.19.16.08.28.18.38.29.12.15.18.33.18.53,0,.21-.07.45-.19.72-.12.26-.27.49-.44.7-.17.21-.37.38-.59.53-.53.35-1.32.58-2.38.7-.53.06-1.25.1-2.16.13-.91.03-2.02.04-3.32.04-1.37,0-2.37-.02-3-.07-.31-.03-.59-.06-.83-.1-.24-.04-.44-.09-.6-.16-.39-.15-.62-.34-.69-.57-.03-.12-.03-.26,0-.43.04-.17.11-.38.21-.61.03-.06.08-.18.15-.32h0Z"></path>
        <polygon class="cls-3" points="113.09 .04 116.38 .04 120.31 6.09 129.75 .04 133.06 .04 129.74 7.18 128.11 7.18 131.01 .94 130.32 .94 120.49 7.18 119.14 7.18 115.03 .94 114.31 .94 111.41 7.18 109.77 7.18 113.09 .04"></polygon>
        <path class="cls-3" d="M134.77.04h1.63l-1.63,3.51c-.24.52-.43.93-.57,1.25-.14.31-.22.52-.25.63-.08.27-.03.47.13.59.08.06.21.11.38.15.17.04.38.07.63.09.42.03.93.05,1.55.07.61.01,1.33.02,2.14.02,1.11,0,2.05,0,2.83-.03.77-.02,1.38-.05,1.82-.09.52-.05.91-.13,1.17-.26.13-.07.25-.15.36-.26.11-.11.2-.23.29-.38.08-.13.19-.35.34-.65.15-.29.33-.67.55-1.13l1.63-3.51h1.63l-1.63,3.51c-.23.48-.43.88-.59,1.21-.17.33-.31.58-.41.76-.2.31-.45.57-.75.79-.3.22-.65.38-1.05.51-.49.15-1.05.24-1.67.28-.31.02-.84.04-1.6.06-.75.02-1.73.04-2.93.05-2.08-.02-3.32-.03-3.73-.05-.43-.01-.86-.05-1.31-.11-.38-.05-.7-.14-.93-.28-.24-.13-.4-.3-.49-.52-.08-.21-.08-.46,0-.75.05-.14.14-.38.27-.71.14-.32.32-.74.54-1.25l1.63-3.51Z"></path>
        <path class="cls-3" d="M156.33,3.56h8.12c-.26.55-.49,1-.69,1.36-.2.36-.37.62-.5.78-.3.36-.62.64-.98.82-.18.09-.39.18-.63.25-.24.07-.52.14-.82.19-.41.07-1.06.13-1.93.16-.87.04-1.98.05-3.31.05-1.25,0-2.32-.01-3.2-.04-.88-.02-1.57-.06-2.06-.11-.43-.04-.79-.12-1.06-.23-.28-.11-.47-.26-.59-.45-.13-.21-.15-.54-.04-1,.1-.46.31-1.05.64-1.76.23-.5.47-.94.71-1.32.24-.39.49-.72.74-.99.48-.53,1.2-.87,2.16-1.04.48-.08,1.17-.14,2.06-.18.89-.04,1.98-.06,3.28-.06.85,0,1.81.01,2.86.04.53.01.96.03,1.32.04.36.01.63.03.81.04.38.03.71.09,1,.18.28.09.51.21.69.35.22.18.33.38.34.62,0,.12-.01.26-.06.42-.04.17-.11.35-.21.57h-1.7c.12-.28.19-.5.2-.68.02-.17-.02-.3-.11-.37-.12-.09-.32-.16-.6-.2-.14-.02-.32-.04-.55-.06-.23-.02-.5-.03-.82-.05-.44-.02-.93-.03-1.48-.04-.55,0-1.15-.01-1.81-.01-1.73,0-2.99.03-3.78.08-.39.03-.73.06-1,.11-.27.05-.49.1-.64.17-.29.13-.55.35-.79.68-.12.17-.25.38-.39.64-.14.26-.3.57-.46.93-.25.54-.44.98-.56,1.33-.13.35-.19.61-.19.78,0,.2.09.35.25.44.08.05.19.09.33.12.14.03.31.06.5.08.39.04,1.02.06,1.9.08.88.02,2,.03,3.36.03.76,0,1.41,0,1.98-.03.57-.02,1.03-.04,1.41-.08.68-.06,1.16-.2,1.43-.4.14-.1.29-.27.44-.5.15-.23.32-.53.5-.89h-6.46l.4-.86Z"></path>
        <path class="cls-3" d="M172.82,3.56h8.12c-.26.55-.49,1-.69,1.36-.2.36-.37.62-.5.78-.3.36-.62.64-.98.82-.18.09-.39.18-.63.25-.24.07-.52.14-.82.19-.41.07-1.06.13-1.93.16-.87.04-1.98.05-3.32.05-1.25,0-2.32-.01-3.2-.04-.88-.02-1.57-.06-2.07-.11-.43-.04-.79-.12-1.06-.23-.28-.11-.47-.26-.59-.45-.13-.21-.15-.54-.04-1,.1-.46.32-1.05.65-1.76.23-.5.47-.94.71-1.32.24-.39.49-.72.74-.99.48-.53,1.2-.87,2.16-1.04.48-.08,1.17-.14,2.06-.18.89-.04,1.98-.06,3.28-.06.85,0,1.8.01,2.86.04.52.01.96.03,1.32.04.36.01.63.03.81.04.38.03.71.09,1,.18.28.09.51.21.69.35.22.18.33.38.34.62,0,.12-.01.26-.05.42-.04.17-.11.35-.21.57h-1.71c.12-.28.19-.5.2-.68.02-.17-.02-.3-.11-.37-.12-.09-.32-.16-.6-.2-.14-.02-.32-.04-.55-.06-.23-.02-.5-.03-.82-.05-.44-.02-.93-.03-1.47-.04-.55,0-1.15-.01-1.81-.01-1.73,0-2.99.03-3.78.08-.39.03-.72.06-1,.11-.27.05-.49.1-.64.17-.29.13-.55.35-.79.68-.12.17-.25.38-.39.64-.14.26-.3.57-.47.93-.25.54-.43.98-.56,1.33-.12.35-.19.61-.19.78,0,.2.09.35.25.44.08.05.19.09.33.12.14.03.31.06.5.08.39.04,1.02.06,1.9.08.88.02,2,.03,3.36.03.76,0,1.42,0,1.98-.03.57-.02,1.04-.04,1.41-.08.68-.06,1.16-.2,1.43-.4.14-.1.29-.27.44-.5.16-.23.32-.53.5-.89h-6.46l.4-.86Z"></path>
        <polygon class="cls-3" points="184.14 .04 185.78 .04 182.86 6.32 192.66 6.32 192.26 7.18 180.83 7.18 184.14 .04"></polygon>
        <polygon class="cls-3" points="193.21 7.18 196.52 .04 208.65 .04 208.25 .9 197.76 .9 196.76 3.05 206.81 3.05 206.42 3.91 196.36 3.91 195.24 6.32 205.73 6.32 205.33 7.18 193.21 7.18"></polygon>
        <path class="cls-3" d="M206.53,7.18L209.85.04h7.72c1.04,0,1.9.02,2.56.03.66.01,1.13.03,1.41.06.49.04.89.12,1.18.26.29.13.48.31.57.54.06.15.07.33.04.55-.03.21-.11.46-.24.73-.19.41-.38.73-.56.94-.2.24-.42.4-.65.52-.21.1-.45.19-.73.26-.28.07-.6.13-.96.17.25.03.47.07.65.13.18.06.33.13.44.23.17.15.23.32.21.52-.02.1-.06.25-.13.45-.15.41-.51,1.14-.79,1.75h-1.63l.31-.68c.13-.29.24-.53.32-.73.08-.2.14-.36.17-.47.05-.22-.01-.4-.18-.53-.16-.13-.43-.21-.79-.25-.29-.02-.56-.04-.79-.04-.12,0-.38,0-.79,0-.41,0-.96,0-1.66,0h-6.08l-1.27,2.72h-1.63ZM209.83,3.6h6.08c1.6,0,2.63-.01,3.09-.04.23-.01.45-.03.65-.07.2-.03.38-.08.55-.13.25-.08.47-.22.66-.41.2-.2.37-.45.51-.76.12-.27.18-.49.16-.66-.02-.17-.1-.3-.26-.38-.2-.1-.57-.17-1.09-.2-.26-.02-.65-.03-1.15-.03-.5,0-1.13-.01-1.87-.01h-6.08l-1.26,2.7Z"></path>
        <polygon class="cls-1" points="164.05 11.58 165.97 11.58 168.27 15.47 173.79 11.58 175.73 11.58 173.79 16.17 172.83 16.17 174.53 12.16 174.12 12.16 168.37 16.17 167.59 16.17 165.18 12.16 164.76 12.16 163.06 16.17 162.11 16.17 164.05 11.58"></polygon>
        <path class="cls-1" d="M182.89,16.17l-.45-.97h-5.86l-1.27.97h-1.09l6.05-4.59h1.55l2.16,4.59h-1.07ZM182.21,14.65l-1.19-2.52h-.39l-3.35,2.52h4.93Z"></path>
        <path class="cls-1" d="M184.4,16.17l1.94-4.59h4.51c.61,0,1.11.01,1.5.02.39,0,.66.02.82.04.29.03.52.08.69.17.56.32.37.74.21,1.17-.11.26-.22.47-.32.6-.29.35-.51.4-.81.5-.17.05-.35.08-.56.11.23.03.43.06.64.23.1.09.14.21.12.34,0,.06-.04.16-.08.29-.09.26-.3.73-.46,1.13h-.96l.18-.43c.08-.19.14-.34.19-.47.05-.13.08-.23.1-.3.03-.15,0-.26-.1-.34-.13-.14-.55-.18-.93-.19-.07,0-.22,0-.46,0-.24,0-.56,0-.97,0h-3.56l-.74,1.75h-.96ZM186.33,13.86h3.56c.94,0,1.54,0,1.81-.02.36-.05.73-.02,1.09-.39.12-.13.22-.29.3-.49.07-.17.1-.32.09-.43,0-.11-.06-.19-.15-.25-.12-.07-.33-.11-.64-.13-.15-.01-.38-.02-.67-.02-.29,0-.66,0-1.09,0h-3.56l-.73,1.74Z"></path>
        <polygon class="cls-1" points="195.58 11.58 196.54 11.58 194.6 16.17 193.64 16.17 195.58 11.58"></polygon>
        <polygon class="cls-1" points="197.64 11.58 199.24 11.58 203.9 15.59 204.12 15.59 205.82 11.58 206.77 11.58 204.83 16.17 203.21 16.17 198.57 12.16 198.35 12.16 196.66 16.17 195.7 16.17 197.64 11.58"></polygon>
        <polygon class="cls-1" points="205.94 16.17 207.88 11.58 214.97 11.58 214.74 12.13 208.6 12.13 208.01 13.51 213.9 13.51 213.66 14.07 207.78 14.07 207.12 15.62 213.26 15.62 213.03 16.17 205.94 16.17"></polygon>
      </g>
    </g>
  </g>
</svg>
